<svg width="980" height="320" viewBox="0 0 980 320" fill="none" xmlns="http://www.w3.org/2000/svg" role="img" aria-labelledby="title desc">
  <title id="title">LLM Evaluation Harness animated testing project card</title>
  <desc id="desc">Tests LLM outputs for accuracy, hallucination risk, safety, formatting and regression quality.</desc>
  <defs><radialGradient id="bg" cx="75%" cy="26%" r="70%"><stop offset="0" stop-color="#2A1D58"/><stop offset=".48" stop-color="#0B1220"/><stop offset="1" stop-color="#020617"/></radialGradient><linearGradient id="border" x1="0" y1="0" x2="980" y2="320"><stop stop-color="#FBBF24"/><stop offset=".5" stop-color="#38BDF8"><animate attributeName="stop-color" values="#38BDF8;#8B5CF6;#00D1B2;#38BDF8" dur="10s" repeatCount="indefinite"/></stop><stop offset="1" stop-color="#8B5CF6"/></linearGradient><pattern id="grid" width="32" height="32" patternUnits="userSpaceOnUse"><path d="M32 0H0V32" stroke="#38BDF8" stroke-opacity=".07"/></pattern></defs>
  <rect x="8" y="8" width="964" height="304" rx="28" fill="url(#bg)" stroke="url(#border)" stroke-width="2.5"/><rect x="24" y="24" width="932" height="272" rx="22" fill="url(#grid)" opacity=".9"/><rect x="34" y="42" width="912" height="2" fill="#FBBF24" opacity=".12"><animate attributeName="y" values="42;278;42" dur="7.8s" repeatCount="indefinite"/></rect>
  <rect x="48" y="48" width="174" height="34" rx="17" fill="#1F1B12" stroke="#FBBF24" stroke-opacity=".7"/><text x="66" y="70" fill="#FEF3C7" font-family="Segoe UI, Arial, sans-serif" font-size="14" font-weight="700">LLM Testing / AI Safety</text>
  <rect x="794" y="48" width="132" height="34" rx="17" fill="#121826" stroke="#8B5CF6" stroke-opacity=".75"/><text x="813" y="70" fill="#DDD6FE" font-family="Segoe UI, Arial, sans-serif" font-size="14" font-weight="700">Private / in progress</text>
  <text x="48" y="128" fill="#F8FAFC" font-family="Segoe UI, Arial, sans-serif" font-size="42" font-weight="800">LLM Evaluation Harness</text>
  <text x="50" y="168" fill="#94A3B8" font-family="Segoe UI, Arial, sans-serif" font-size="20">Tests LLM outputs for accuracy, hallucination risk, safety, formatting and regression quality.</text>
  <g font-family="Segoe UI, Arial, sans-serif" font-size="14" font-weight="700"><rect x="48" y="232" width="78" height="32" rx="16" fill="#111827" stroke="#38BDF8"/><text x="67" y="253" fill="#BAE6FD">Python</text><rect x="136" y="232" width="82" height="32" rx="16" fill="#0F766E"/><text x="154" y="253" fill="#ECFEFF">FastAPI</text><rect x="228" y="232" width="72" height="32" rx="16" fill="#1E3A8A"/><text x="248" y="253" fill="#DBEAFE">pytest</text><rect x="310" y="232" width="76" height="32" rx="16" fill="#312E81"/><text x="329" y="253" fill="#E0E7FF">SQLite</text></g>
  <g transform="translate(668 96)">
    <rect x="0" y="0" width="236" height="170" rx="18" fill="#111827" stroke="#38BDF8"/>
    <g fill="#0F766E"><rect x="22" y="118" width="28" height="30" rx="6"><animate attributeName="height" values="32;66;32" dur="3s" repeatCount="indefinite"/><animate attributeName="y" values="116;82;116" dur="3s" repeatCount="indefinite"/></rect><rect x="68" y="92" width="28" height="56" rx="6"/><rect x="114" y="70" width="28" height="78" rx="6"><animate attributeName="height" values="64;92;64" dur="3.4s" repeatCount="indefinite"/><animate attributeName="y" values="84;56;84" dur="3.4s" repeatCount="indefinite"/></rect></g>
    <rect x="162" y="34" width="48" height="18" rx="9" fill="#052E2B" stroke="#00D1B2"/><text x="174" y="48" fill="#99F6E4" font-family="Segoe UI, Arial" font-size="10" font-weight="700">PASS</text>
    <rect x="162" y="64" width="48" height="18" rx="9" fill="#2A1D08" stroke="#FBBF24"/><text x="176" y="78" fill="#FEF3C7" font-family="Segoe UI, Arial" font-size="10" font-weight="700">RISK</text>
    <path d="M166 136L188 98L210 136H166Z" fill="#FBBF24"><animate attributeName="opacity" values=".55;1;.55" dur="2.2s" repeatCount="indefinite"/></path><text x="184" y="129" fill="#020617" font-family="Arial" font-size="18" font-weight="900">!</text>
  </g>
  <text x="48" y="292" fill="#64748B" font-family="Segoe UI, Arial, sans-serif" font-size="13">SYSTEM STATUS: regression suite | schema checks | hallucination risk scan</text>
</svg>
