<svg width="980" height="320" viewBox="0 0 980 320" fill="none" xmlns="http://www.w3.org/2000/svg" role="img" aria-labelledby="title desc">
  <title id="title">RAG Pipeline from Scratch animated retrieval project card</title>
  <desc id="desc">Document ingestion, chunking, embeddings, vector search, grounded answers and citations.</desc>
  <defs><radialGradient id="bg" cx="78%" cy="30%" r="70%"><stop offset="0" stop-color="#12335F"/><stop offset=".46" stop-color="#0B1220"/><stop offset="1" stop-color="#020617"/></radialGradient><linearGradient id="border" x1="0" y1="0" x2="980" y2="320"><stop stop-color="#38BDF8"><animate attributeName="stop-color" values="#38BDF8;#00D1B2;#8B5CF6;#38BDF8" dur="11s" repeatCount="indefinite"/></stop><stop offset="1" stop-color="#00D1B2"/></linearGradient><pattern id="grid" width="34" height="34" patternUnits="userSpaceOnUse"><path d="M34 0H0V34" stroke="#38BDF8" stroke-opacity=".08"/></pattern><filter id="glow"><feGaussianBlur stdDeviation="5" result="b"/><feMerge><feMergeNode in="b"/><feMergeNode in="SourceGraphic"/></feMerge></filter></defs>
  <rect x="8" y="8" width="964" height="304" rx="28" fill="url(#bg)" stroke="url(#border)" stroke-width="2.5"/><rect x="24" y="24" width="932" height="272" rx="22" fill="url(#grid)" opacity=".9"/><rect x="34" y="278" width="912" height="2" fill="#00D1B2" opacity=".13"><animate attributeName="y" values="278;42;278" dur="8.5s" repeatCount="indefinite"/></rect>
  <rect x="48" y="48" width="178" height="34" rx="17" fill="#061B2A" stroke="#38BDF8" stroke-opacity=".65"/><text x="66" y="70" fill="#BAE6FD" font-family="Segoe UI, Arial, sans-serif" font-size="14" font-weight="700">RAG / Semantic Search</text>
  <rect x="794" y="48" width="132" height="34" rx="17" fill="#121826" stroke="#8B5CF6" stroke-opacity=".75"/><text x="813" y="70" fill="#DDD6FE" font-family="Segoe UI, Arial, sans-serif" font-size="14" font-weight="700">Private / in progress</text>
  <text x="48" y="128" fill="#F8FAFC" font-family="Segoe UI, Arial, sans-serif" font-size="42" font-weight="800">RAG Pipeline from Scratch</text>
  <text x="50" y="168" fill="#94A3B8" font-family="Segoe UI, Arial, sans-serif" font-size="20">Document ingestion, chunking, embeddings, vector search, grounded answers and citations.</text>
  <g font-family="Segoe UI, Arial, sans-serif" font-size="14" font-weight="700"><rect x="48" y="232" width="78" height="32" rx="16" fill="#111827" stroke="#38BDF8"/><text x="67" y="253" fill="#BAE6FD">Python</text><rect x="136" y="232" width="96" height="32" rx="16" fill="#0F766E"/><text x="154" y="253" fill="#ECFEFF">ChromaDB</text><rect x="242" y="232" width="112" height="32" rx="16" fill="#1E3A8A"/><text x="263" y="253" fill="#DBEAFE">Embeddings</text><rect x="364" y="232" width="82" height="32" rx="16" fill="#312E81"/><text x="382" y="253" fill="#E0E7FF">FastAPI</text></g>
  <g transform="translate(660 90)" filter="url(#glow)">
    <rect x="0" y="38" width="82" height="108" rx="12" fill="#111827" stroke="#38BDF8"/><line x1="18" y1="68" x2="62" y2="68" stroke="#94A3B8"/><line x1="18" y1="91" x2="54" y2="91" stroke="#94A3B8"/><line x1="18" y1="114" x2="65" y2="114" stroke="#94A3B8"/>
    <rect x="32" y="10" width="82" height="108" rx="12" fill="#0B1220" stroke="#00D1B2"/><line x1="50" y1="42" x2="94" y2="42" stroke="#94A3B8"/><line x1="50" y1="65" x2="85" y2="65" stroke="#94A3B8"/>
    <circle cx="176" cy="78" r="12" fill="#00D1B2"><animate attributeName="cx" values="138;176;138" dur="3.6s" repeatCount="indefinite"/></circle>
    <circle cx="238" cy="42" r="10" fill="#38BDF8"/><circle cx="278" cy="98" r="10" fill="#8B5CF6"/><circle cx="220" cy="148" r="10" fill="#00D1B2"/>
    <path d="M114 78H164M188 75L238 42M188 82L278 98M184 88L220 148" stroke="#38BDF8" stroke-width="2" stroke-dasharray="8 8"><animate attributeName="stroke-dashoffset" values="0;-64" dur="3.5s" repeatCount="indefinite"/></path>
    <path d="M218 172H290" stroke="#FBBF24" stroke-width="3" stroke-linecap="round"/><circle cx="290" cy="172" r="5" fill="#FBBF24"><animate attributeName="opacity" values=".4;1;.4" dur="2s" repeatCount="indefinite"/></circle>
  </g>
  <text x="48" y="292" fill="#64748B" font-family="Segoe UI, Arial, sans-serif" font-size="13">SYSTEM STATUS: chunking pipeline | vector index | citation trace</text>
</svg>
