<svg width="760" height="260" viewBox="0 0 760 260" fill="none" xmlns="http://www.w3.org/2000/svg" role="img" aria-labelledby="title desc">
  <title id="title">Synthetic Data Generator and Evaluator project card</title>
  <desc id="desc">Generates synthetic tabular data and evaluates privacy, similarity and ML utility.</desc>
  <defs><linearGradient id="border" x1="0" y1="0" x2="760" y2="260"><stop offset="0%" stop-color="#38BDF8"/><stop offset="100%" stop-color="#00D1B2"><animate attributeName="stop-color" values="#00D1B2;#8B5CF6;#38BDF8;#00D1B2" dur="9s" repeatCount="indefinite"/></stop></linearGradient></defs>
  <rect x="8" y="8" width="744" height="244" rx="22" fill="#020617" stroke="url(#border)" stroke-width="2"/><rect x="18" y="18" width="724" height="224" rx="18" fill="#0B1220" opacity=".88"/>
  <rect x="28" y="40" width="704" height="1.2" fill="#38BDF8" opacity=".14"><animate attributeName="y" values="40;218;40" dur="7s" repeatCount="indefinite"/></rect>
  <g transform="translate(52 58)">
    <rect x="0" y="0" width="170" height="106" rx="12" fill="#111827" stroke="#38BDF8"/>
    <g fill="#0F766E"><rect x="16" y="18" width="40" height="14" rx="4"/><rect x="66" y="18" width="40" height="14" rx="4"/><rect x="116" y="18" width="40" height="14" rx="4"/></g>
    <g fill="#1E3A8A"><rect x="16" y="44" width="40" height="14" rx="4"><animate attributeName="fill" values="#1E3A8A;#00D1B2;#1E3A8A" dur="3s" repeatCount="indefinite"/></rect><rect x="66" y="44" width="40" height="14" rx="4"/><rect x="116" y="44" width="40" height="14" rx="4"/></g>
    <g fill="#312E81"><rect x="16" y="70" width="40" height="14" rx="4"/><rect x="66" y="70" width="40" height="14" rx="4"><animate attributeName="fill" values="#312E81;#38BDF8;#312E81" dur="3.4s" repeatCount="indefinite"/></rect><rect x="116" y="70" width="40" height="14" rx="4"/></g>
    <path d="M196 36L218 44V64C218 82 207 94 196 100C185 94 174 82 174 64V44L196 36Z" fill="#042F2E" stroke="#00D1B2"/>
  </g>
  <text x="280" y="66" fill="#E5E7EB" font-family="Segoe UI, Arial, sans-serif" font-size="27" font-weight="700">Synthetic Data Generator and Evaluator</text>
  <text x="280" y="94" fill="#38BDF8" font-family="Segoe UI, Arial, sans-serif" font-size="14" font-weight="600">PRIVACY / SIMILARITY / ML UTILITY</text>
  <rect x="588" y="48" width="116" height="30" rx="15" fill="#111827" stroke="#8B5CF6"/><text x="607" y="68" fill="#C4B5FD" font-family="Segoe UI, Arial, sans-serif" font-size="13" font-weight="700">Private / building</text>
  <text x="280" y="132" fill="#CBD5E1" font-family="Segoe UI, Arial, sans-serif" font-size="18">Generates synthetic tabular data and evaluates privacy,</text><text x="280" y="157" fill="#CBD5E1" font-family="Segoe UI, Arial, sans-serif" font-size="18">statistical similarity and downstream ML utility.</text>
  <g font-family="Segoe UI, Arial, sans-serif" font-size="13" font-weight="700"><rect x="280" y="184" width="66" height="28" rx="14" fill="#111827" stroke="#38BDF8"/><text x="296" y="203" fill="#BAE6FD">Python</text><rect x="356" y="184" width="68" height="28" rx="14" fill="#0F766E"/><text x="372" y="203" fill="#ECFEFF">pandas</text><rect x="434" y="184" width="96" height="28" rx="14" fill="#1E3A8A"/><text x="450" y="203" fill="#DBEAFE">scikit-learn</text><rect x="540" y="184" width="72" height="28" rx="14" fill="#312E81"/><text x="558" y="203" fill="#E0E7FF">FastAPI</text></g>
</svg>
