<svg width="980" height="320" viewBox="0 0 980 320" fill="none" xmlns="http://www.w3.org/2000/svg" role="img" aria-labelledby="title desc">
  <title id="title">Property-Match / Nestdore animated vector search project card</title>
  <desc id="desc">AI property matching using embeddings, vector search and explainable recommendations.</desc>
  <defs><radialGradient id="bg" cx="77%" cy="30%" r="72%"><stop offset="0" stop-color="#0B3B3A"/><stop offset=".46" stop-color="#0B1220"/><stop offset="1" stop-color="#020617"/></radialGradient><linearGradient id="border" x1="0" y1="0" x2="980" y2="320"><stop stop-color="#00D1B2"/><stop offset="1" stop-color="#8B5CF6"><animate attributeName="stop-color" values="#8B5CF6;#38BDF8;#00D1B2;#8B5CF6" dur="10s" repeatCount="indefinite"/></stop></linearGradient><pattern id="grid" width="32" height="32" patternUnits="userSpaceOnUse"><path d="M32 0H0V32" stroke="#38BDF8" stroke-opacity=".08"/></pattern></defs>
  <rect x="8" y="8" width="964" height="304" rx="28" fill="url(#bg)" stroke="url(#border)" stroke-width="2.5"/><rect x="24" y="24" width="932" height="272" rx="22" fill="url(#grid)" opacity=".9"/><rect x="34" y="278" width="912" height="2" fill="#00D1B2" opacity=".13"><animate attributeName="y" values="278;42;278" dur="8.1s" repeatCount="indefinite"/></rect>
  <rect x="48" y="48" width="214" height="34" rx="17" fill="#061B2A" stroke="#00D1B2" stroke-opacity=".7"/><text x="66" y="70" fill="#99F6E4" font-family="Segoe UI, Arial, sans-serif" font-size="14" font-weight="700">Full-Stack AI / Vector Search</text>
  <rect x="832" y="48" width="94" height="34" rx="17" fill="#121826" stroke="#8B5CF6" stroke-opacity=".75"/><text x="854" y="70" fill="#DDD6FE" font-family="Segoe UI, Arial, sans-serif" font-size="14" font-weight="800">In progress</text>
  <text x="48" y="128" fill="#F8FAFC" font-family="Segoe UI, Arial, sans-serif" font-size="42" font-weight="800">Property-Match / Nestdore</text>
  <text x="50" y="168" fill="#94A3B8" font-family="Segoe UI, Arial, sans-serif" font-size="20">AI property matching using embeddings, vector search and explainable recommendations.</text>
  <g font-family="Segoe UI, Arial, sans-serif" font-size="14" font-weight="700"><rect x="48" y="232" width="84" height="32" rx="16" fill="#111827" stroke="#38BDF8"/><text x="68" y="253" fill="#BAE6FD">Next.js</text><rect x="142" y="232" width="104" height="32" rx="16" fill="#0F766E"/><text x="160" y="253" fill="#ECFEFF">TypeScript</text><rect x="256" y="232" width="82" height="32" rx="16" fill="#1E3A8A"/><text x="274" y="253" fill="#DBEAFE">FastAPI</text><rect x="348" y="232" width="112" height="32" rx="16" fill="#312E81"/><text x="368" y="253" fill="#E0E7FF">PostgreSQL</text><rect x="470" y="232" width="86" height="32" rx="16" fill="#052E2B" stroke="#00D1B2"/><text x="490" y="253" fill="#99F6E4">pgvector</text></g>
  <g transform="translate(634 82)">
    <rect x="0" y="22" width="96" height="126" rx="16" fill="#111827" stroke="#38BDF8"/><path d="M22 82L48 58L74 82V124H22V82Z" fill="#0F766E"/><rect x="40" y="104" width="16" height="20" fill="#020617"/>
    <rect x="126" y="0" width="96" height="126" rx="16" fill="#111827" stroke="#00D1B2"/><path d="M148 60L174 36L200 60V102H148V60Z" fill="#1E3A8A"/><rect x="166" y="82" width="16" height="20" fill="#020617"/>
    <circle cx="284" cy="74" r="12" fill="#00D1B2"><animate attributeName="r" values="9;15;9" dur="2.8s" repeatCount="indefinite"/></circle><circle cx="338" cy="38" r="9" fill="#38BDF8"/><circle cx="350" cy="118" r="9" fill="#8B5CF6"/>
    <path d="M222 64L284 74M296 70L338 38M296 80L350 118" stroke="#38BDF8" stroke-width="3" stroke-dasharray="8 8"><animate attributeName="stroke-dashoffset" values="0;-64" dur="3.2s" repeatCount="indefinite"/></path>
    <rect x="250" y="154" width="130" height="30" rx="15" fill="#052E2B" stroke="#00D1B2"/><text x="273" y="174" fill="#99F6E4" font-family="Segoe UI, Arial" font-size="13" font-weight="800">match 92%</text>
  </g>
  <text x="48" y="292" fill="#64748B" font-family="Segoe UI, Arial, sans-serif" font-size="13">SYSTEM STATUS: property vectors | recommendation score | explainable match</text>
</svg>
