<svg width="760" height="260" viewBox="0 0 760 260" fill="none" xmlns="http://www.w3.org/2000/svg" role="img" aria-labelledby="title desc">
  <title id="title">End-to-End ML Pipeline with MLflow project card</title>
  <desc id="desc">ML lifecycle with preprocessing, training, MLflow tracking and FastAPI inference.</desc>
  <defs><linearGradient id="border" x1="0" y1="0" x2="760" y2="260"><stop offset="0%" stop-color="#00D1B2"/><stop offset="100%" stop-color="#38BDF8"><animate attributeName="stop-color" values="#38BDF8;#00D1B2;#8B5CF6;#38BDF8" dur="8s" repeatCount="indefinite"/></stop></linearGradient></defs>
  <rect x="8" y="8" width="744" height="244" rx="22" fill="#020617" stroke="url(#border)" stroke-width="2"/><rect x="18" y="18" width="724" height="224" rx="18" fill="#0B1220" opacity=".88"/>
  <rect x="28" y="218" width="704" height="1.2" fill="#00D1B2" opacity=".14"><animate attributeName="y" values="218;40;218" dur="7s" repeatCount="indefinite"/></rect>
  <g transform="translate(50 72)" font-family="Segoe UI, Arial, sans-serif" font-size="11" font-weight="700">
    <path d="M58 38H92M150 38H184M242 38H276" stroke="#38BDF8" stroke-width="3" stroke-linecap="round"/>
    <circle cx="105" cy="38" r="5" fill="#00D1B2"><animate attributeName="cx" values="58;92;150;184;242;276;58" dur="5s" repeatCount="indefinite"/></circle>
    <rect x="0" y="10" width="58" height="56" rx="12" fill="#111827" stroke="#00D1B2"/><text x="17" y="42" fill="#CCFBF1">DATA</text>
    <rect x="92" y="10" width="58" height="56" rx="12" fill="#111827" stroke="#38BDF8"/><text x="105" y="42" fill="#BAE6FD">TRAIN</text>
    <rect x="184" y="10" width="58" height="56" rx="12" fill="#111827" stroke="#8B5CF6"/><text x="198" y="42" fill="#DDD6FE">EVAL</text>
    <rect x="276" y="10" width="58" height="56" rx="12" fill="#111827" stroke="#FBBF24"/><text x="293" y="42" fill="#FEF3C7">API</text>
  </g>
  <text x="410" y="66" fill="#E5E7EB" font-family="Segoe UI, Arial, sans-serif" font-size="27" font-weight="700">End-to-End ML Pipeline with MLflow</text>
  <text x="410" y="94" fill="#00D1B2" font-family="Segoe UI, Arial, sans-serif" font-size="14" font-weight="600">MLOPS / EXPERIMENT TRACKING / API</text>
  <rect x="628" y="48" width="76" height="30" rx="15" fill="#052E2B" stroke="#00D1B2"/><text x="649" y="68" fill="#99F6E4" font-family="Segoe UI, Arial, sans-serif" font-size="13" font-weight="700">Public</text>
  <text x="410" y="132" fill="#CBD5E1" font-family="Segoe UI, Arial, sans-serif" font-size="18">ML lifecycle with preprocessing, training, MLflow tracking,</text><text x="410" y="157" fill="#CBD5E1" font-family="Segoe UI, Arial, sans-serif" font-size="18">Docker packaging and FastAPI inference.</text>
  <g font-family="Segoe UI, Arial, sans-serif" font-size="13" font-weight="700"><rect x="410" y="184" width="66" height="28" rx="14" fill="#111827" stroke="#38BDF8"/><text x="426" y="203" fill="#BAE6FD">Python</text><rect x="486" y="184" width="96" height="28" rx="14" fill="#0F766E"/><text x="502" y="203" fill="#ECFEFF">scikit-learn</text><rect x="592" y="184" width="66" height="28" rx="14" fill="#1E3A8A"/><text x="609" y="203" fill="#DBEAFE">MLflow</text><rect x="668" y="184" width="64" height="28" rx="14" fill="#312E81"/><text x="684" y="203" fill="#E0E7FF">Docker</text></g>
</svg>
