<svg width="760" height="260" viewBox="0 0 760 260" fill="none" xmlns="http://www.w3.org/2000/svg" role="img" aria-labelledby="title desc">
  <title id="title">LLM Evaluation Harness project card</title>
  <desc id="desc">Tests LLM outputs for accuracy, hallucination risk, safety and formatting.</desc>
  <defs><linearGradient id="border" x1="0" y1="0" x2="760" y2="260"><stop offset="0%" stop-color="#00D1B2"/><stop offset="50%" stop-color="#38BDF8"><animate attributeName="stop-color" values="#38BDF8;#FBBF24;#8B5CF6;#38BDF8" dur="8s" repeatCount="indefinite"/></stop><stop offset="100%" stop-color="#8B5CF6"/></linearGradient></defs>
  <rect x="8" y="8" width="744" height="244" rx="22" fill="#020617" stroke="url(#border)" stroke-width="2"/><rect x="18" y="18" width="724" height="224" rx="18" fill="#0B1220" opacity=".88"/>
  <rect x="28" y="38" width="704" height="1.2" fill="#38BDF8" opacity=".14"><animate attributeName="y" values="38;222;38" dur="6.8s" repeatCount="indefinite"/></rect>
  <g transform="translate(54 58)">
    <rect x="0" y="0" width="168" height="104" rx="13" fill="#111827" stroke="#38BDF8"/>
    <rect x="18" y="20" width="30" height="60" rx="5" fill="#0F766E"><animate attributeName="height" values="42;68;42" dur="3s" repeatCount="indefinite"/><animate attributeName="y" values="38;12;38" dur="3s" repeatCount="indefinite"/></rect>
    <rect x="68" y="38" width="30" height="42" rx="5" fill="#38BDF8"><animate attributeName="height" values="32;54;32" dur="3.4s" repeatCount="indefinite"/><animate attributeName="y" values="48;26;48" dur="3.4s" repeatCount="indefinite"/></rect>
    <rect x="118" y="28" width="30" height="52" rx="5" fill="#8B5CF6"><animate attributeName="height" values="48;70;48" dur="3.7s" repeatCount="indefinite"/><animate attributeName="y" values="32;10;32" dur="3.7s" repeatCount="indefinite"/></rect>
    <path d="M131 101L146 75L161 101H131Z" fill="#FBBF24"/><text x="144" y="96" fill="#020617" font-family="Arial" font-size="16" font-weight="700">!</text>
  </g>
  <text x="260" y="66" fill="#E5E7EB" font-family="Segoe UI, Arial, sans-serif" font-size="30" font-weight="700">LLM Evaluation Harness</text>
  <text x="260" y="94" fill="#FBBF24" font-family="Segoe UI, Arial, sans-serif" font-size="14" font-weight="600">QUALITY / SAFETY / REGRESSION TESTING</text>
  <rect x="588" y="48" width="116" height="30" rx="15" fill="#111827" stroke="#8B5CF6"/><text x="607" y="68" fill="#C4B5FD" font-family="Segoe UI, Arial, sans-serif" font-size="13" font-weight="700">Private / building</text>
  <text x="260" y="132" fill="#CBD5E1" font-family="Segoe UI, Arial, sans-serif" font-size="18">Tests LLM outputs for accuracy, hallucination risk, safety,</text><text x="260" y="157" fill="#CBD5E1" font-family="Segoe UI, Arial, sans-serif" font-size="18">formatting, schema quality and regressions.</text>
  <g font-family="Segoe UI, Arial, sans-serif" font-size="13" font-weight="700"><rect x="260" y="184" width="66" height="28" rx="14" fill="#111827" stroke="#38BDF8"/><text x="276" y="203" fill="#BAE6FD">Python</text><rect x="336" y="184" width="72" height="28" rx="14" fill="#0F766E"/><text x="354" y="203" fill="#ECFEFF">FastAPI</text><rect x="418" y="184" width="62" height="28" rx="14" fill="#1E3A8A"/><text x="435" y="203" fill="#DBEAFE">pytest</text><rect x="490" y="184" width="64" height="28" rx="14" fill="#312E81"/><text x="506" y="203" fill="#E0E7FF">SQLite</text></g>
</svg>
