<svg width="760" height="260" viewBox="0 0 760 260" fill="none" xmlns="http://www.w3.org/2000/svg" role="img" aria-labelledby="title desc">
  <title id="title">RAG Pipeline from Scratch project card</title>
  <desc id="desc">Document ingestion, embeddings, vector search, grounded answers and citations.</desc>
  <defs><linearGradient id="border" x1="0" y1="0" x2="760" y2="260"><stop offset="0%" stop-color="#38BDF8"><animate attributeName="stop-color" values="#38BDF8;#00D1B2;#8B5CF6;#38BDF8" dur="8s" repeatCount="indefinite"/></stop><stop offset="100%" stop-color="#8B5CF6"/></linearGradient><filter id="glow"><feGaussianBlur stdDeviation="4" result="b"/><feMerge><feMergeNode in="b"/><feMergeNode in="SourceGraphic"/></feMerge></filter></defs>
  <rect x="8" y="8" width="744" height="244" rx="22" fill="#020617" stroke="url(#border)" stroke-width="2"/>
  <rect x="18" y="18" width="724" height="224" rx="18" fill="#0B1220" opacity=".88"/>
  <rect x="28" y="218" width="704" height="1.4" fill="#00D1B2" opacity=".16"><animate attributeName="y" values="218;42;218" dur="7.5s" repeatCount="indefinite"/></rect>
  <g transform="translate(48 56)" filter="url(#glow)">
    <rect x="0" y="10" width="58" height="78" rx="8" fill="#111827" stroke="#38BDF8"/><line x1="12" y1="31" x2="45" y2="31" stroke="#94A3B8"/><line x1="12" y1="48" x2="38" y2="48" stroke="#94A3B8"/><line x1="12" y1="65" x2="47" y2="65" stroke="#94A3B8"/>
    <circle cx="118" cy="48" r="9" fill="#00D1B2"><animate attributeName="cx" values="98;128;98" dur="3s" repeatCount="indefinite"/></circle>
    <circle cx="162" cy="24" r="7" fill="#38BDF8"/><circle cx="190" cy="65" r="7" fill="#8B5CF6"/><circle cx="148" cy="90" r="7" fill="#00D1B2"/>
    <path d="M58 49H107M128 48L162 24M128 48L190 65M128 48L148 90" stroke="#38BDF8" opacity=".75"/>
  </g>
  <text x="260" y="66" fill="#E5E7EB" font-family="Segoe UI, Arial, sans-serif" font-size="29" font-weight="700">RAG Pipeline from Scratch</text>
  <text x="260" y="94" fill="#00D1B2" font-family="Segoe UI, Arial, sans-serif" font-size="14" font-weight="600">RETRIEVAL / GROUNDED ANSWERS</text>
  <rect x="588" y="48" width="116" height="30" rx="15" fill="#111827" stroke="#8B5CF6"/><text x="607" y="68" fill="#C4B5FD" font-family="Segoe UI, Arial, sans-serif" font-size="13" font-weight="700">Private / building</text>
  <text x="260" y="132" fill="#CBD5E1" font-family="Segoe UI, Arial, sans-serif" font-size="18">Document ingestion, embeddings, vector search, grounded</text>
  <text x="260" y="157" fill="#CBD5E1" font-family="Segoe UI, Arial, sans-serif" font-size="18">answers and citation-aware retrieval workflows.</text>
  <g font-family="Segoe UI, Arial, sans-serif" font-size="13" font-weight="700"><rect x="260" y="184" width="66" height="28" rx="14" fill="#111827" stroke="#38BDF8"/><text x="276" y="203" fill="#BAE6FD">Python</text><rect x="336" y="184" width="82" height="28" rx="14" fill="#0F766E"/><text x="352" y="203" fill="#ECFEFF">ChromaDB</text><rect x="428" y="184" width="96" height="28" rx="14" fill="#1E3A8A"/><text x="445" y="203" fill="#DBEAFE">Embeddings</text><rect x="534" y="184" width="72" height="28" rx="14" fill="#312E81"/><text x="552" y="203" fill="#E0E7FF">FastAPI</text></g>
</svg>
